<mxfile host="app.diagrams.net" agent="Mozilla/5.0 (Windows NT 10.0; Win64; x64) AppleWebKit/537.36 (KHTML, like Gecko) Chrome/131.0.0.0 Safari/537.36" version="24.8.9">
  <diagram name="Strona-1" id="A-eLIfPtgyuipk0eq5dr">
    <mxGraphModel dx="1182" dy="453" grid="1" gridSize="10" guides="1" tooltips="1" connect="1" arrows="1" fold="1" page="1" pageScale="1" pageWidth="827" pageHeight="1169" math="0" shadow="0">
      <root>
        <mxCell id="0" />
        <mxCell id="1" parent="0" />
        <mxCell id="vgB3EqqvCxF6jJ2dN742-1" value="" style="points=[];aspect=fixed;html=1;align=center;shadow=0;dashed=0;fillColor=#FF6A00;strokeColor=none;shape=mxgraph.alibaba_cloud.user;" parent="1" vertex="1">
          <mxGeometry x="130" y="480" width="30" height="30" as="geometry" />
        </mxCell>
        <mxCell id="vgB3EqqvCxF6jJ2dN742-2" value="JWTAuthFilter&lt;div&gt;(JwtAccessTokenFilter)&lt;/div&gt;" style="sketch=0;outlineConnect=0;fontColor=#232F3E;gradientColor=none;fillColor=#232F3D;strokeColor=none;dashed=0;verticalLabelPosition=bottom;verticalAlign=top;align=center;html=1;fontSize=12;fontStyle=0;aspect=fixed;pointerEvents=1;shape=mxgraph.aws4.shield2;" parent="1" vertex="1">
          <mxGeometry x="260" y="481" width="28" height="28" as="geometry" />
        </mxCell>
        <mxCell id="vgB3EqqvCxF6jJ2dN742-3" value="JWT Service&lt;div&gt;&lt;span style=&quot;background-color: initial;&quot;&gt;(OAuth 2.0&amp;nbsp;&lt;/span&gt;&lt;/div&gt;&lt;div&gt;Resorse Server)&lt;/div&gt;" style="verticalLabelPosition=bottom;html=1;verticalAlign=top;align=center;strokeColor=none;fillColor=#00BEF2;shape=mxgraph.azure.startup_task;pointerEvents=1;" parent="1" vertex="1">
          <mxGeometry x="386" y="479" width="27.5" height="30" as="geometry" />
        </mxCell>
        <mxCell id="vgB3EqqvCxF6jJ2dN742-4" value="extract&lt;div&gt;JWT Token&lt;/div&gt;" style="rhombus;whiteSpace=wrap;html=1;fillColor=none;" parent="1" vertex="1">
          <mxGeometry x="349.75" y="376.33" width="100" height="50" as="geometry" />
        </mxCell>
        <mxCell id="vgB3EqqvCxF6jJ2dN742-5" value="validate&lt;div&gt;JWT Token&lt;/div&gt;" style="rhombus;whiteSpace=wrap;html=1;fillColor=none;" parent="1" vertex="1">
          <mxGeometry x="339.75" y="585" width="110" height="50" as="geometry" />
        </mxCell>
        <mxCell id="vgB3EqqvCxF6jJ2dN742-6" value="ContextSecurityHolder" style="shape=image;html=1;verticalAlign=top;verticalLabelPosition=bottom;labelBackgroundColor=#ffffff;imageAspect=0;aspect=fixed;image=https://cdn1.iconfinder.com/data/icons/unicons-line-vol-3/24/file-lock-alt-128.png" parent="1" vertex="1">
          <mxGeometry x="500" y="471" width="48" height="48" as="geometry" />
        </mxCell>
        <mxCell id="vgB3EqqvCxF6jJ2dN742-7" value="UserDetailsService" style="verticalLabelPosition=bottom;html=1;verticalAlign=top;align=center;strokeColor=none;fillColor=#00BEF2;shape=mxgraph.azure.startup_task;pointerEvents=1;" parent="1" vertex="1">
          <mxGeometry x="510.25" y="380" width="27.5" height="30" as="geometry" />
        </mxCell>
        <mxCell id="vgB3EqqvCxF6jJ2dN742-8" value="PostgreSQL&amp;nbsp;&lt;div&gt;DataBase&lt;/div&gt;" style="image;aspect=fixed;html=1;points=[];align=center;fontSize=12;image=img/lib/azure2/databases/Azure_Database_PostgreSQL_Server.svg;" parent="1" vertex="1">
          <mxGeometry x="602" y="376.33000000000004" width="28" height="37.33" as="geometry" />
        </mxCell>
        <mxCell id="vgB3EqqvCxF6jJ2dN742-9" value="Spring Security&lt;div&gt;Auth Process&lt;/div&gt;" style="verticalLabelPosition=bottom;html=1;verticalAlign=top;align=center;strokeColor=none;fillColor=#00BEF2;shape=mxgraph.azure.startup_task;pointerEvents=1;" parent="1" vertex="1">
          <mxGeometry x="610" y="481" width="27.5" height="30" as="geometry" />
        </mxCell>
        <mxCell id="vgB3EqqvCxF6jJ2dN742-10" value="Controller" style="aspect=fixed;sketch=0;html=1;dashed=0;whitespace=wrap;verticalLabelPosition=bottom;verticalAlign=top;fillColor=#2875E2;strokeColor=#ffffff;points=[[0.005,0.63,0],[0.1,0.2,0],[0.9,0.2,0],[0.5,0,0],[0.995,0.63,0],[0.72,0.99,0],[0.5,1,0],[0.28,0.99,0]];shape=mxgraph.kubernetes.icon2;kubernetesLabel=1;prIcon=api" parent="1" vertex="1">
          <mxGeometry x="601" y="571" width="29" height="27.84" as="geometry" />
        </mxCell>
        <mxCell id="vgB3EqqvCxF6jJ2dN742-11" value="" style="endArrow=classic;html=1;rounded=0;exitX=1.084;exitY=0.462;exitDx=0;exitDy=0;exitPerimeter=0;" parent="1" source="vgB3EqqvCxF6jJ2dN742-1" target="vgB3EqqvCxF6jJ2dN742-2" edge="1">
          <mxGeometry width="50" height="50" relative="1" as="geometry">
            <mxPoint x="480" y="530" as="sourcePoint" />
            <mxPoint x="220" y="494" as="targetPoint" />
          </mxGeometry>
        </mxCell>
        <mxCell id="vgB3EqqvCxF6jJ2dN742-12" value="" style="endArrow=classic;html=1;rounded=0;entryX=0;entryY=0.5;entryDx=0;entryDy=0;entryPerimeter=0;" parent="1" source="vgB3EqqvCxF6jJ2dN742-2" target="vgB3EqqvCxF6jJ2dN742-3" edge="1">
          <mxGeometry width="50" height="50" relative="1" as="geometry">
            <mxPoint x="260" y="650" as="sourcePoint" />
            <mxPoint x="310" y="600" as="targetPoint" />
          </mxGeometry>
        </mxCell>
        <mxCell id="vgB3EqqvCxF6jJ2dN742-13" value="" style="endArrow=classic;html=1;rounded=0;exitX=0.5;exitY=0;exitDx=0;exitDy=0;exitPerimeter=0;entryX=0.5;entryY=1;entryDx=0;entryDy=0;" parent="1" source="vgB3EqqvCxF6jJ2dN742-3" target="vgB3EqqvCxF6jJ2dN742-4" edge="1">
          <mxGeometry width="50" height="50" relative="1" as="geometry">
            <mxPoint x="220" y="650" as="sourcePoint" />
            <mxPoint x="270" y="600" as="targetPoint" />
          </mxGeometry>
        </mxCell>
        <mxCell id="vgB3EqqvCxF6jJ2dN742-14" value="" style="endArrow=classic;html=1;rounded=0;entryX=0.5;entryY=0;entryDx=0;entryDy=0;" parent="1" target="vgB3EqqvCxF6jJ2dN742-5" edge="1">
          <mxGeometry width="50" height="50" relative="1" as="geometry">
            <mxPoint x="395" y="560" as="sourcePoint" />
            <mxPoint x="280" y="610" as="targetPoint" />
          </mxGeometry>
        </mxCell>
        <mxCell id="vgB3EqqvCxF6jJ2dN742-15" value="" style="endArrow=classic;startArrow=classic;html=1;rounded=0;entryX=0;entryY=0.5;entryDx=0;entryDy=0;entryPerimeter=0;" parent="1" target="vgB3EqqvCxF6jJ2dN742-7" edge="1">
          <mxGeometry width="50" height="50" relative="1" as="geometry">
            <mxPoint x="450" y="400" as="sourcePoint" />
            <mxPoint x="500" y="350" as="targetPoint" />
          </mxGeometry>
        </mxCell>
        <mxCell id="vgB3EqqvCxF6jJ2dN742-16" value="" style="endArrow=classic;startArrow=classic;html=1;rounded=0;entryX=-0.097;entryY=0.572;entryDx=0;entryDy=0;entryPerimeter=0;" parent="1" target="vgB3EqqvCxF6jJ2dN742-8" edge="1">
          <mxGeometry width="50" height="50" relative="1" as="geometry">
            <mxPoint x="540" y="400" as="sourcePoint" />
            <mxPoint x="620" y="360" as="targetPoint" />
          </mxGeometry>
        </mxCell>
        <mxCell id="vgB3EqqvCxF6jJ2dN742-17" value="" style="endArrow=classic;html=1;rounded=0;exitX=1;exitY=0.5;exitDx=0;exitDy=0;" parent="1" source="vgB3EqqvCxF6jJ2dN742-5" edge="1">
          <mxGeometry width="50" height="50" relative="1" as="geometry">
            <mxPoint x="490" y="620" as="sourcePoint" />
            <mxPoint x="530" y="550" as="targetPoint" />
            <Array as="points">
              <mxPoint x="530" y="610" />
            </Array>
          </mxGeometry>
        </mxCell>
        <mxCell id="vgB3EqqvCxF6jJ2dN742-18" value="" style="endArrow=classic;html=1;rounded=0;exitX=1;exitY=0.5;exitDx=0;exitDy=0;entryX=0;entryY=0.5;entryDx=0;entryDy=0;entryPerimeter=0;" parent="1" source="vgB3EqqvCxF6jJ2dN742-6" edge="1" target="vgB3EqqvCxF6jJ2dN742-9">
          <mxGeometry width="50" height="50" relative="1" as="geometry">
            <mxPoint x="560" y="510" as="sourcePoint" />
            <mxPoint x="640" y="500" as="targetPoint" />
          </mxGeometry>
        </mxCell>
        <mxCell id="vgB3EqqvCxF6jJ2dN742-19" value="" style="endArrow=classic;html=1;rounded=0;entryX=0.367;entryY=0.068;entryDx=0;entryDy=0;entryPerimeter=0;" parent="1" target="vgB3EqqvCxF6jJ2dN742-10" edge="1">
          <mxGeometry width="50" height="50" relative="1" as="geometry">
            <mxPoint x="616" y="550" as="sourcePoint" />
            <mxPoint x="780" y="530" as="targetPoint" />
          </mxGeometry>
        </mxCell>
        <mxCell id="vgB3EqqvCxF6jJ2dN742-20" value="" style="endArrow=classic;html=1;rounded=0;entryX=0.333;entryY=1;entryDx=0;entryDy=0;entryPerimeter=0;" parent="1" target="vgB3EqqvCxF6jJ2dN742-1" edge="1">
          <mxGeometry width="50" height="50" relative="1" as="geometry">
            <mxPoint x="610" y="620" as="sourcePoint" />
            <mxPoint x="600" y="630" as="targetPoint" />
            <Array as="points">
              <mxPoint x="610" y="640" />
              <mxPoint x="140" y="640" />
            </Array>
          </mxGeometry>
        </mxCell>
        <mxCell id="vgB3EqqvCxF6jJ2dN742-21" value="" style="endArrow=classic;html=1;rounded=0;entryX=0.667;entryY=1;entryDx=0;entryDy=0;entryPerimeter=0;exitX=0;exitY=0.5;exitDx=0;exitDy=0;" parent="1" source="vgB3EqqvCxF6jJ2dN742-5" target="vgB3EqqvCxF6jJ2dN742-1" edge="1">
          <mxGeometry width="50" height="50" relative="1" as="geometry">
            <mxPoint x="220" y="610" as="sourcePoint" />
            <mxPoint x="270" y="560" as="targetPoint" />
            <Array as="points">
              <mxPoint x="150" y="610" />
            </Array>
          </mxGeometry>
        </mxCell>
        <mxCell id="vgB3EqqvCxF6jJ2dN742-22" value="" style="endArrow=classic;html=1;rounded=0;entryX=0.624;entryY=-0.094;entryDx=0;entryDy=0;entryPerimeter=0;" parent="1" source="vgB3EqqvCxF6jJ2dN742-2" target="vgB3EqqvCxF6jJ2dN742-1" edge="1">
          <mxGeometry width="50" height="50" relative="1" as="geometry">
            <mxPoint x="270" y="480" as="sourcePoint" />
            <mxPoint x="320" y="430" as="targetPoint" />
            <Array as="points">
              <mxPoint x="274" y="450" />
              <mxPoint x="150" y="450" />
            </Array>
          </mxGeometry>
        </mxCell>
        <mxCell id="vgB3EqqvCxF6jJ2dN742-23" value="" style="endArrow=classic;html=1;rounded=0;exitX=0;exitY=0.5;exitDx=0;exitDy=0;entryX=0.333;entryY=0;entryDx=0;entryDy=0;entryPerimeter=0;" parent="1" source="vgB3EqqvCxF6jJ2dN742-4" target="vgB3EqqvCxF6jJ2dN742-1" edge="1">
          <mxGeometry width="50" height="50" relative="1" as="geometry">
            <mxPoint x="320" y="410" as="sourcePoint" />
            <mxPoint x="370" y="360" as="targetPoint" />
            <Array as="points">
              <mxPoint x="140" y="400" />
            </Array>
          </mxGeometry>
        </mxCell>
        <mxCell id="vgB3EqqvCxF6jJ2dN742-24" value="" style="endArrow=classic;html=1;rounded=0;entryX=0.83;entryY=-0.014;entryDx=0;entryDy=0;entryPerimeter=0;" parent="1" target="vgB3EqqvCxF6jJ2dN742-1" edge="1">
          <mxGeometry width="50" height="50" relative="1" as="geometry">
            <mxPoint x="520" y="380" as="sourcePoint" />
            <mxPoint x="100" y="370" as="targetPoint" />
            <Array as="points">
              <mxPoint x="520" y="360" />
              <mxPoint x="155" y="360" />
            </Array>
          </mxGeometry>
        </mxCell>
        <mxCell id="vgB3EqqvCxF6jJ2dN742-25" value="&lt;font style=&quot;font-size: 10px;&quot;&gt;HTTP: 403&lt;/font&gt;" style="text;html=1;align=center;verticalAlign=middle;whiteSpace=wrap;rounded=0;" parent="1" vertex="1">
          <mxGeometry x="150" y="451" width="60" height="30" as="geometry" />
        </mxCell>
        <mxCell id="vgB3EqqvCxF6jJ2dN742-26" value="&lt;font style=&quot;font-size: 10px;&quot;&gt;HTTP: 403&lt;/font&gt;" style="text;html=1;align=center;verticalAlign=middle;whiteSpace=wrap;rounded=0;" parent="1" vertex="1">
          <mxGeometry x="150" y="580" width="60" height="30" as="geometry" />
        </mxCell>
        <mxCell id="vgB3EqqvCxF6jJ2dN742-27" value="&lt;font style=&quot;font-size: 10px;&quot;&gt;HTTP: 200&lt;/font&gt;" style="text;html=1;align=center;verticalAlign=middle;whiteSpace=wrap;rounded=0;" parent="1" vertex="1">
          <mxGeometry x="140" y="620" width="60" height="30" as="geometry" />
        </mxCell>
        <mxCell id="vgB3EqqvCxF6jJ2dN742-28" value="a)" style="text;html=1;align=center;verticalAlign=middle;whiteSpace=wrap;rounded=0;" parent="1" vertex="1">
          <mxGeometry x="180" y="471" width="60" height="30" as="geometry" />
        </mxCell>
        <mxCell id="vgB3EqqvCxF6jJ2dN742-29" value="b)" style="text;html=1;align=center;verticalAlign=middle;whiteSpace=wrap;rounded=0;" parent="1" vertex="1">
          <mxGeometry x="190" y="426.33000000000004" width="60" height="30" as="geometry" />
        </mxCell>
        <mxCell id="vgB3EqqvCxF6jJ2dN742-30" value="c)" style="text;html=1;align=center;verticalAlign=middle;whiteSpace=wrap;rounded=0;" parent="1" vertex="1">
          <mxGeometry x="244" y="376.33" width="60" height="30" as="geometry" />
        </mxCell>
        <mxCell id="vgB3EqqvCxF6jJ2dN742-31" value="d)" style="text;html=1;align=center;verticalAlign=middle;whiteSpace=wrap;rounded=0;" parent="1" vertex="1">
          <mxGeometry x="440" y="376.33" width="60" height="30" as="geometry" />
        </mxCell>
        <mxCell id="vgB3EqqvCxF6jJ2dN742-32" value="e)" style="text;html=1;align=center;verticalAlign=middle;whiteSpace=wrap;rounded=0;" parent="1" vertex="1">
          <mxGeometry x="260" y="330" width="60" height="30" as="geometry" />
        </mxCell>
        <mxCell id="vgB3EqqvCxF6jJ2dN742-33" value="f)" style="text;html=1;align=center;verticalAlign=middle;whiteSpace=wrap;rounded=0;" parent="1" vertex="1">
          <mxGeometry x="228" y="580" width="60" height="30" as="geometry" />
        </mxCell>
        <mxCell id="vgB3EqqvCxF6jJ2dN742-34" value="g)" style="text;html=1;align=center;verticalAlign=middle;whiteSpace=wrap;rounded=0;" parent="1" vertex="1">
          <mxGeometry x="477.75" y="580" width="60" height="30" as="geometry" />
        </mxCell>
        <mxCell id="vgB3EqqvCxF6jJ2dN742-35" value="h)" style="text;html=1;align=center;verticalAlign=middle;whiteSpace=wrap;rounded=0;" parent="1" vertex="1">
          <mxGeometry x="542" y="471" width="60" height="30" as="geometry" />
        </mxCell>
        <mxCell id="vgB3EqqvCxF6jJ2dN742-36" value="i)" style="text;html=1;align=center;verticalAlign=middle;whiteSpace=wrap;rounded=0;" parent="1" vertex="1">
          <mxGeometry x="510.25" y="620" width="60" height="30" as="geometry" />
        </mxCell>
      </root>
    </mxGraphModel>
  </diagram>
</mxfile>
